<mxfile host="Electron" agent="Mozilla/5.0 (Windows NT 10.0; Win64; x64) AppleWebKit/537.36 (KHTML, like Gecko) draw.io/24.7.8 Chrome/128.0.6613.36 Electron/32.0.1 Safari/537.36" version="24.7.8">
  <diagram name="Page-1" id="hjKlsbyRXCPO7IHfrT21">
    <mxGraphModel dx="1340" dy="894" grid="1" gridSize="10" guides="1" tooltips="1" connect="1" arrows="1" fold="1" page="1" pageScale="1" pageWidth="850" pageHeight="1100" math="0" shadow="0">
      <root>
        <mxCell id="0" />
        <mxCell id="1" parent="0" />
        <mxCell id="8P1LtGxCn2CejyLs3uwH-1" style="edgeStyle=orthogonalEdgeStyle;shape=connector;rounded=0;orthogonalLoop=1;jettySize=auto;html=1;exitX=0.25;exitY=0;exitDx=0;exitDy=0;entryX=0.5;entryY=1;entryDx=0;entryDy=0;strokeColor=default;align=center;verticalAlign=middle;fontFamily=Helvetica;fontSize=12;fontColor=#000000;labelBackgroundColor=default;endArrow=none;endFill=0;" edge="1" parent="1" source="8P1LtGxCn2CejyLs3uwH-4" target="8P1LtGxCn2CejyLs3uwH-5">
          <mxGeometry relative="1" as="geometry" />
        </mxCell>
        <mxCell id="8P1LtGxCn2CejyLs3uwH-2" style="edgeStyle=orthogonalEdgeStyle;shape=connector;rounded=0;orthogonalLoop=1;jettySize=auto;html=1;exitX=0.75;exitY=0;exitDx=0;exitDy=0;entryX=0.5;entryY=1;entryDx=0;entryDy=0;strokeColor=default;align=center;verticalAlign=middle;fontFamily=Helvetica;fontSize=12;fontColor=#000000;labelBackgroundColor=default;endArrow=none;endFill=0;" edge="1" parent="1" source="8P1LtGxCn2CejyLs3uwH-4" target="8P1LtGxCn2CejyLs3uwH-6">
          <mxGeometry relative="1" as="geometry" />
        </mxCell>
        <mxCell id="8P1LtGxCn2CejyLs3uwH-3" style="edgeStyle=orthogonalEdgeStyle;shape=connector;rounded=0;orthogonalLoop=1;jettySize=auto;html=1;exitX=1;exitY=0.5;exitDx=0;exitDy=0;strokeColor=default;align=center;verticalAlign=middle;fontFamily=Helvetica;fontSize=12;fontColor=#000000;labelBackgroundColor=default;endArrow=none;endFill=0;" edge="1" parent="1" source="8P1LtGxCn2CejyLs3uwH-4" target="8P1LtGxCn2CejyLs3uwH-37">
          <mxGeometry relative="1" as="geometry" />
        </mxCell>
        <mxCell id="8P1LtGxCn2CejyLs3uwH-4" value="Water Body" style="whiteSpace=wrap;html=1;align=center;strokeColor=#6F0000;verticalAlign=middle;fontFamily=Helvetica;fontSize=12;fontColor=#ffffff;fillColor=#a20025;" vertex="1" parent="1">
          <mxGeometry x="505" y="310" width="100" height="40" as="geometry" />
        </mxCell>
        <mxCell id="8P1LtGxCn2CejyLs3uwH-5" value="&lt;u&gt;body_number&lt;/u&gt;" style="ellipse;whiteSpace=wrap;html=1;align=center;strokeColor=#B09500;verticalAlign=middle;fontFamily=Helvetica;fontSize=12;fontColor=#000000;fillColor=#e3c800;" vertex="1" parent="1">
          <mxGeometry x="445" y="230" width="100" height="40" as="geometry" />
        </mxCell>
        <mxCell id="8P1LtGxCn2CejyLs3uwH-6" value="name" style="ellipse;whiteSpace=wrap;html=1;align=center;strokeColor=#B09500;verticalAlign=middle;fontFamily=Helvetica;fontSize=12;fontColor=#000000;fillColor=#e3c800;" vertex="1" parent="1">
          <mxGeometry x="570" y="230" width="100" height="40" as="geometry" />
        </mxCell>
        <mxCell id="8P1LtGxCn2CejyLs3uwH-7" style="edgeStyle=orthogonalEdgeStyle;shape=connector;rounded=0;orthogonalLoop=1;jettySize=auto;html=1;exitX=0;exitY=0.75;exitDx=0;exitDy=0;entryX=0.5;entryY=1;entryDx=0;entryDy=0;strokeColor=default;align=center;verticalAlign=middle;fontFamily=Helvetica;fontSize=12;fontColor=#000000;labelBackgroundColor=default;endArrow=none;endFill=0;" edge="1" parent="1" source="8P1LtGxCn2CejyLs3uwH-9" target="8P1LtGxCn2CejyLs3uwH-25">
          <mxGeometry relative="1" as="geometry" />
        </mxCell>
        <mxCell id="8P1LtGxCn2CejyLs3uwH-8" style="edgeStyle=orthogonalEdgeStyle;shape=connector;rounded=0;orthogonalLoop=1;jettySize=auto;html=1;exitX=0;exitY=0.25;exitDx=0;exitDy=0;entryX=0.5;entryY=0;entryDx=0;entryDy=0;strokeColor=default;align=center;verticalAlign=middle;fontFamily=Helvetica;fontSize=12;fontColor=#000000;labelBackgroundColor=default;endArrow=none;endFill=0;" edge="1" parent="1" source="8P1LtGxCn2CejyLs3uwH-9" target="8P1LtGxCn2CejyLs3uwH-25">
          <mxGeometry relative="1" as="geometry" />
        </mxCell>
        <mxCell id="8P1LtGxCn2CejyLs3uwH-9" value="Running Water" style="whiteSpace=wrap;html=1;align=center;strokeColor=#6F0000;verticalAlign=middle;fontFamily=Helvetica;fontSize=12;fontColor=#ffffff;fillColor=#a20025;" vertex="1" parent="1">
          <mxGeometry x="435" y="430" width="100" height="40" as="geometry" />
        </mxCell>
        <mxCell id="8P1LtGxCn2CejyLs3uwH-10" value="Standing Water" style="whiteSpace=wrap;html=1;align=center;strokeColor=#6F0000;verticalAlign=middle;fontFamily=Helvetica;fontSize=12;fontColor=#ffffff;fillColor=#a20025;" vertex="1" parent="1">
          <mxGeometry x="575" y="430" width="100" height="40" as="geometry" />
        </mxCell>
        <mxCell id="8P1LtGxCn2CejyLs3uwH-11" style="edgeStyle=orthogonalEdgeStyle;shape=connector;rounded=0;orthogonalLoop=1;jettySize=auto;html=1;exitX=1;exitY=0.5;exitDx=0;exitDy=0;entryX=0.5;entryY=0;entryDx=0;entryDy=0;strokeColor=default;align=center;verticalAlign=middle;fontFamily=Helvetica;fontSize=12;fontColor=#000000;labelBackgroundColor=default;endArrow=none;endFill=0;" edge="1" parent="1" source="8P1LtGxCn2CejyLs3uwH-13" target="8P1LtGxCn2CejyLs3uwH-10">
          <mxGeometry relative="1" as="geometry" />
        </mxCell>
        <mxCell id="8P1LtGxCn2CejyLs3uwH-12" style="edgeStyle=orthogonalEdgeStyle;shape=connector;rounded=0;orthogonalLoop=1;jettySize=auto;html=1;exitX=0;exitY=0.5;exitDx=0;exitDy=0;entryX=0.5;entryY=0;entryDx=0;entryDy=0;strokeColor=default;align=center;verticalAlign=middle;fontFamily=Helvetica;fontSize=12;fontColor=#000000;labelBackgroundColor=default;endArrow=none;endFill=0;" edge="1" parent="1" source="8P1LtGxCn2CejyLs3uwH-13" target="8P1LtGxCn2CejyLs3uwH-9">
          <mxGeometry relative="1" as="geometry" />
        </mxCell>
        <mxCell id="8P1LtGxCn2CejyLs3uwH-13" value="d" style="ellipse;whiteSpace=wrap;html=1;aspect=fixed;strokeColor=#001DBC;align=center;verticalAlign=middle;fontFamily=Helvetica;fontSize=12;fontColor=#ffffff;fillColor=#0050ef;" vertex="1" parent="1">
          <mxGeometry x="540" y="380" width="30" height="30" as="geometry" />
        </mxCell>
        <mxCell id="8P1LtGxCn2CejyLs3uwH-14" value="" style="endArrow=none;html=1;rounded=0;strokeColor=default;align=center;verticalAlign=middle;fontFamily=Helvetica;fontSize=12;fontColor=#000000;labelBackgroundColor=default;edgeStyle=orthogonalEdgeStyle;exitX=0.5;exitY=1;exitDx=0;exitDy=0;entryX=0.5;entryY=0;entryDx=0;entryDy=0;" edge="1" parent="1" source="8P1LtGxCn2CejyLs3uwH-4" target="8P1LtGxCn2CejyLs3uwH-13">
          <mxGeometry relative="1" as="geometry">
            <mxPoint x="645" y="400" as="sourcePoint" />
            <mxPoint x="805" y="400" as="targetPoint" />
          </mxGeometry>
        </mxCell>
        <mxCell id="8P1LtGxCn2CejyLs3uwH-15" style="edgeStyle=orthogonalEdgeStyle;shape=connector;rounded=0;orthogonalLoop=1;jettySize=auto;html=1;exitX=0.5;exitY=0;exitDx=0;exitDy=0;entryX=0.25;entryY=1;entryDx=0;entryDy=0;strokeColor=default;align=center;verticalAlign=middle;fontFamily=Helvetica;fontSize=12;fontColor=#000000;labelBackgroundColor=default;endArrow=none;endFill=0;" edge="1" parent="1" source="8P1LtGxCn2CejyLs3uwH-16" target="8P1LtGxCn2CejyLs3uwH-9">
          <mxGeometry relative="1" as="geometry">
            <Array as="points">
              <mxPoint x="460" y="500" />
            </Array>
          </mxGeometry>
        </mxCell>
        <mxCell id="8P1LtGxCn2CejyLs3uwH-16" value="length" style="ellipse;whiteSpace=wrap;html=1;align=center;strokeColor=#B09500;verticalAlign=middle;fontFamily=Helvetica;fontSize=12;fontColor=#000000;fillColor=#e3c800;" vertex="1" parent="1">
          <mxGeometry x="375" y="510" width="100" height="40" as="geometry" />
        </mxCell>
        <mxCell id="8P1LtGxCn2CejyLs3uwH-17" style="edgeStyle=orthogonalEdgeStyle;shape=connector;rounded=0;orthogonalLoop=1;jettySize=auto;html=1;exitX=0.5;exitY=0;exitDx=0;exitDy=0;entryX=0.75;entryY=1;entryDx=0;entryDy=0;strokeColor=default;align=center;verticalAlign=middle;fontFamily=Helvetica;fontSize=12;fontColor=#000000;labelBackgroundColor=default;endArrow=none;endFill=0;" edge="1" parent="1" source="8P1LtGxCn2CejyLs3uwH-18" target="8P1LtGxCn2CejyLs3uwH-9">
          <mxGeometry relative="1" as="geometry">
            <Array as="points">
              <mxPoint x="510" y="500" />
            </Array>
          </mxGeometry>
        </mxCell>
        <mxCell id="8P1LtGxCn2CejyLs3uwH-18" value="avg_flow_rate" style="ellipse;whiteSpace=wrap;html=1;align=center;strokeColor=#B09500;verticalAlign=middle;fontFamily=Helvetica;fontSize=12;fontColor=#000000;fillColor=#e3c800;" vertex="1" parent="1">
          <mxGeometry x="495" y="510" width="100" height="40" as="geometry" />
        </mxCell>
        <mxCell id="8P1LtGxCn2CejyLs3uwH-19" style="edgeStyle=orthogonalEdgeStyle;shape=connector;rounded=0;orthogonalLoop=1;jettySize=auto;html=1;exitX=0.5;exitY=0;exitDx=0;exitDy=0;entryX=0.5;entryY=1;entryDx=0;entryDy=0;strokeColor=default;align=center;verticalAlign=middle;fontFamily=Helvetica;fontSize=12;fontColor=#000000;labelBackgroundColor=default;endArrow=none;endFill=0;" edge="1" parent="1" source="8P1LtGxCn2CejyLs3uwH-20" target="8P1LtGxCn2CejyLs3uwH-10">
          <mxGeometry relative="1" as="geometry" />
        </mxCell>
        <mxCell id="8P1LtGxCn2CejyLs3uwH-20" value="surface" style="ellipse;whiteSpace=wrap;html=1;align=center;strokeColor=#B09500;verticalAlign=middle;fontFamily=Helvetica;fontSize=12;fontColor=#000000;fillColor=#e3c800;" vertex="1" parent="1">
          <mxGeometry x="625" y="510" width="100" height="40" as="geometry" />
        </mxCell>
        <mxCell id="8P1LtGxCn2CejyLs3uwH-21" style="edgeStyle=orthogonalEdgeStyle;shape=connector;rounded=0;orthogonalLoop=1;jettySize=auto;html=1;exitX=0.5;exitY=0;exitDx=0;exitDy=0;entryX=0.5;entryY=1;entryDx=0;entryDy=0;strokeColor=default;align=center;verticalAlign=middle;fontFamily=Helvetica;fontSize=12;fontColor=#000000;labelBackgroundColor=default;endArrow=none;endFill=0;" edge="1" parent="1" source="8P1LtGxCn2CejyLs3uwH-23" target="8P1LtGxCn2CejyLs3uwH-33">
          <mxGeometry relative="1" as="geometry" />
        </mxCell>
        <mxCell id="8P1LtGxCn2CejyLs3uwH-22" style="edgeStyle=orthogonalEdgeStyle;shape=connector;rounded=0;orthogonalLoop=1;jettySize=auto;html=1;exitX=1;exitY=0.5;exitDx=0;exitDy=0;entryX=0;entryY=0.5;entryDx=0;entryDy=0;strokeColor=default;align=center;verticalAlign=middle;fontFamily=Helvetica;fontSize=12;fontColor=#000000;labelBackgroundColor=default;endArrow=none;endFill=0;" edge="1" parent="1" source="8P1LtGxCn2CejyLs3uwH-23" target="8P1LtGxCn2CejyLs3uwH-68">
          <mxGeometry relative="1" as="geometry">
            <Array as="points">
              <mxPoint x="1020" y="330" />
              <mxPoint x="1020" y="460" />
            </Array>
          </mxGeometry>
        </mxCell>
        <mxCell id="8P1LtGxCn2CejyLs3uwH-23" value="Research Project" style="whiteSpace=wrap;html=1;align=center;strokeColor=#6F0000;verticalAlign=middle;fontFamily=Helvetica;fontSize=12;fontColor=#ffffff;fillColor=#a20025;" vertex="1" parent="1">
          <mxGeometry x="800" y="310" width="100" height="40" as="geometry" />
        </mxCell>
        <mxCell id="8P1LtGxCn2CejyLs3uwH-24" style="edgeStyle=orthogonalEdgeStyle;shape=connector;rounded=0;orthogonalLoop=1;jettySize=auto;html=1;exitX=0;exitY=0;exitDx=0;exitDy=0;entryX=0.5;entryY=1;entryDx=0;entryDy=0;strokeColor=default;align=center;verticalAlign=middle;fontFamily=Helvetica;fontSize=12;fontColor=#000000;labelBackgroundColor=default;endArrow=none;endFill=0;" edge="1" parent="1" source="8P1LtGxCn2CejyLs3uwH-25" target="8P1LtGxCn2CejyLs3uwH-28">
          <mxGeometry relative="1" as="geometry">
            <Array as="points">
              <mxPoint x="270" y="435" />
            </Array>
          </mxGeometry>
        </mxCell>
        <mxCell id="8P1LtGxCn2CejyLs3uwH-25" value="flows_into" style="shape=rhombus;perimeter=rhombusPerimeter;whiteSpace=wrap;html=1;align=center;strokeColor=#2D7600;verticalAlign=middle;fontFamily=Helvetica;fontSize=12;fontColor=#ffffff;fillColor=#60a917;" vertex="1" parent="1">
          <mxGeometry x="255" y="420" width="120" height="60" as="geometry" />
        </mxCell>
        <mxCell id="8P1LtGxCn2CejyLs3uwH-26" value="&lt;font color=&quot;#ffffff&quot;&gt;1&lt;/font&gt;" style="text;html=1;align=center;verticalAlign=middle;resizable=0;points=[];autosize=1;strokeColor=none;fillColor=none;fontFamily=Helvetica;fontSize=12;fontColor=#000000;" vertex="1" parent="1">
          <mxGeometry x="290" y="400" width="30" height="30" as="geometry" />
        </mxCell>
        <mxCell id="8P1LtGxCn2CejyLs3uwH-27" value="&lt;font color=&quot;#ffffff&quot;&gt;N&lt;/font&gt;" style="text;html=1;align=center;verticalAlign=middle;resizable=0;points=[];autosize=1;strokeColor=none;fillColor=none;fontFamily=Helvetica;fontSize=12;fontColor=#000000;" vertex="1" parent="1">
          <mxGeometry x="290" y="470" width="30" height="30" as="geometry" />
        </mxCell>
        <mxCell id="8P1LtGxCn2CejyLs3uwH-28" value="mileage_point" style="ellipse;whiteSpace=wrap;html=1;align=center;strokeColor=#B09500;verticalAlign=middle;fontFamily=Helvetica;fontSize=12;fontColor=#000000;fillColor=#e3c800;" vertex="1" parent="1">
          <mxGeometry x="220" y="350" width="100" height="40" as="geometry" />
        </mxCell>
        <mxCell id="8P1LtGxCn2CejyLs3uwH-29" value="bigger" style="text;html=1;align=center;verticalAlign=middle;resizable=0;points=[];autosize=1;strokeColor=none;fillColor=none;fontFamily=Helvetica;fontSize=12;fontColor=#FFFFFF;" vertex="1" parent="1">
          <mxGeometry x="330" y="400" width="60" height="30" as="geometry" />
        </mxCell>
        <mxCell id="8P1LtGxCn2CejyLs3uwH-30" value="smaller" style="text;html=1;align=center;verticalAlign=middle;resizable=0;points=[];autosize=1;strokeColor=none;fillColor=none;fontFamily=Helvetica;fontSize=12;fontColor=#FFFFFF;" vertex="1" parent="1">
          <mxGeometry x="330" y="470" width="60" height="30" as="geometry" />
        </mxCell>
        <mxCell id="8P1LtGxCn2CejyLs3uwH-31" style="edgeStyle=orthogonalEdgeStyle;shape=connector;rounded=0;orthogonalLoop=1;jettySize=auto;html=1;exitX=0.5;exitY=1;exitDx=0;exitDy=0;entryX=0.25;entryY=0;entryDx=0;entryDy=0;strokeColor=default;align=center;verticalAlign=middle;fontFamily=Helvetica;fontSize=12;fontColor=#000000;labelBackgroundColor=default;endArrow=none;endFill=0;" edge="1" parent="1" source="8P1LtGxCn2CejyLs3uwH-32" target="8P1LtGxCn2CejyLs3uwH-23">
          <mxGeometry relative="1" as="geometry" />
        </mxCell>
        <mxCell id="8P1LtGxCn2CejyLs3uwH-32" value="&lt;u&gt;research_id&lt;/u&gt;" style="ellipse;whiteSpace=wrap;html=1;align=center;strokeColor=#B09500;verticalAlign=middle;fontFamily=Helvetica;fontSize=12;fontColor=#000000;fillColor=#e3c800;" vertex="1" parent="1">
          <mxGeometry x="690" y="230" width="100" height="40" as="geometry" />
        </mxCell>
        <mxCell id="8P1LtGxCn2CejyLs3uwH-33" value="title" style="ellipse;whiteSpace=wrap;html=1;align=center;strokeColor=#B09500;verticalAlign=middle;fontFamily=Helvetica;fontSize=12;fontColor=#000000;fillColor=#e3c800;" vertex="1" parent="1">
          <mxGeometry x="800" y="230" width="100" height="40" as="geometry" />
        </mxCell>
        <mxCell id="8P1LtGxCn2CejyLs3uwH-34" style="edgeStyle=orthogonalEdgeStyle;shape=connector;rounded=0;orthogonalLoop=1;jettySize=auto;html=1;exitX=0.5;exitY=1;exitDx=0;exitDy=0;entryX=0.75;entryY=0;entryDx=0;entryDy=0;strokeColor=default;align=center;verticalAlign=middle;fontFamily=Helvetica;fontSize=12;fontColor=#000000;labelBackgroundColor=default;endArrow=none;endFill=0;" edge="1" parent="1" source="8P1LtGxCn2CejyLs3uwH-35" target="8P1LtGxCn2CejyLs3uwH-23">
          <mxGeometry relative="1" as="geometry" />
        </mxCell>
        <mxCell id="8P1LtGxCn2CejyLs3uwH-35" value="total_cost" style="ellipse;whiteSpace=wrap;html=1;align=center;strokeColor=#B09500;verticalAlign=middle;fontFamily=Helvetica;fontSize=12;fontColor=#000000;fillColor=#e3c800;" vertex="1" parent="1">
          <mxGeometry x="910" y="230" width="100" height="40" as="geometry" />
        </mxCell>
        <mxCell id="8P1LtGxCn2CejyLs3uwH-36" style="edgeStyle=orthogonalEdgeStyle;shape=connector;rounded=0;orthogonalLoop=1;jettySize=auto;html=1;exitX=1;exitY=0.5;exitDx=0;exitDy=0;strokeColor=default;align=center;verticalAlign=middle;fontFamily=Helvetica;fontSize=12;fontColor=#000000;labelBackgroundColor=default;endArrow=none;endFill=0;" edge="1" parent="1" source="8P1LtGxCn2CejyLs3uwH-37" target="8P1LtGxCn2CejyLs3uwH-23">
          <mxGeometry relative="1" as="geometry" />
        </mxCell>
        <mxCell id="8P1LtGxCn2CejyLs3uwH-37" value="researched_by" style="shape=rhombus;perimeter=rhombusPerimeter;whiteSpace=wrap;html=1;align=center;strokeColor=#2D7600;verticalAlign=middle;fontFamily=Helvetica;fontSize=12;fontColor=#ffffff;fillColor=#60a917;" vertex="1" parent="1">
          <mxGeometry x="640" y="300" width="120" height="60" as="geometry" />
        </mxCell>
        <mxCell id="8P1LtGxCn2CejyLs3uwH-38" value="N" style="text;html=1;align=center;verticalAlign=middle;resizable=0;points=[];autosize=1;strokeColor=none;fillColor=none;fontFamily=Helvetica;fontSize=12;fontColor=#FFFFFF;" vertex="1" parent="1">
          <mxGeometry x="615" y="308" width="30" height="30" as="geometry" />
        </mxCell>
        <mxCell id="8P1LtGxCn2CejyLs3uwH-39" value="M" style="text;html=1;align=center;verticalAlign=middle;resizable=0;points=[];autosize=1;strokeColor=none;fillColor=none;fontFamily=Helvetica;fontSize=12;fontColor=#FFFFFF;" vertex="1" parent="1">
          <mxGeometry x="750" y="308" width="30" height="30" as="geometry" />
        </mxCell>
        <mxCell id="8P1LtGxCn2CejyLs3uwH-40" style="edgeStyle=orthogonalEdgeStyle;shape=connector;rounded=0;orthogonalLoop=1;jettySize=auto;html=1;exitX=0.25;exitY=1;exitDx=0;exitDy=0;entryX=0.5;entryY=0;entryDx=0;entryDy=0;strokeColor=default;align=center;verticalAlign=middle;fontFamily=Helvetica;fontSize=12;fontColor=#000000;labelBackgroundColor=default;endArrow=none;endFill=0;" edge="1" parent="1" source="8P1LtGxCn2CejyLs3uwH-43" target="8P1LtGxCn2CejyLs3uwH-49">
          <mxGeometry relative="1" as="geometry">
            <Array as="points">
              <mxPoint x="870" y="570" />
              <mxPoint x="870" y="585" />
            </Array>
          </mxGeometry>
        </mxCell>
        <mxCell id="8P1LtGxCn2CejyLs3uwH-41" style="edgeStyle=orthogonalEdgeStyle;shape=connector;rounded=0;orthogonalLoop=1;jettySize=auto;html=1;exitX=0.5;exitY=0;exitDx=0;exitDy=0;entryX=0.5;entryY=1;entryDx=0;entryDy=0;strokeColor=default;align=center;verticalAlign=middle;fontFamily=Helvetica;fontSize=12;fontColor=#000000;labelBackgroundColor=default;endArrow=none;endFill=0;" edge="1" parent="1" source="8P1LtGxCn2CejyLs3uwH-43" target="8P1LtGxCn2CejyLs3uwH-56">
          <mxGeometry relative="1" as="geometry" />
        </mxCell>
        <mxCell id="8P1LtGxCn2CejyLs3uwH-42" style="edgeStyle=orthogonalEdgeStyle;shape=connector;rounded=0;orthogonalLoop=1;jettySize=auto;html=1;exitX=1;exitY=0.5;exitDx=0;exitDy=0;strokeColor=default;align=center;verticalAlign=middle;fontFamily=Helvetica;fontSize=12;fontColor=#000000;labelBackgroundColor=default;endArrow=none;endFill=0;" edge="1" parent="1" source="8P1LtGxCn2CejyLs3uwH-43" target="8P1LtGxCn2CejyLs3uwH-68">
          <mxGeometry relative="1" as="geometry" />
        </mxCell>
        <mxCell id="8P1LtGxCn2CejyLs3uwH-43" value="Organization" style="whiteSpace=wrap;html=1;align=center;strokeColor=#6F0000;verticalAlign=middle;fontFamily=Helvetica;fontSize=12;fontColor=#ffffff;fillColor=#a20025;" vertex="1" parent="1">
          <mxGeometry x="830" y="530" width="100" height="40" as="geometry" />
        </mxCell>
        <mxCell id="8P1LtGxCn2CejyLs3uwH-44" style="edgeStyle=orthogonalEdgeStyle;shape=connector;rounded=0;orthogonalLoop=1;jettySize=auto;html=1;exitX=0.25;exitY=0;exitDx=0;exitDy=0;strokeColor=default;align=center;verticalAlign=middle;fontFamily=Helvetica;fontSize=12;fontColor=#000000;labelBackgroundColor=default;endArrow=none;endFill=0;" edge="1" parent="1" source="8P1LtGxCn2CejyLs3uwH-46" target="8P1LtGxCn2CejyLs3uwH-66">
          <mxGeometry relative="1" as="geometry" />
        </mxCell>
        <mxCell id="8P1LtGxCn2CejyLs3uwH-45" style="edgeStyle=orthogonalEdgeStyle;shape=connector;rounded=0;orthogonalLoop=1;jettySize=auto;html=1;exitX=0.75;exitY=0;exitDx=0;exitDy=0;entryX=0.5;entryY=1;entryDx=0;entryDy=0;strokeColor=default;align=center;verticalAlign=middle;fontFamily=Helvetica;fontSize=12;fontColor=#000000;labelBackgroundColor=default;endArrow=none;endFill=0;" edge="1" parent="1" source="8P1LtGxCn2CejyLs3uwH-46" target="8P1LtGxCn2CejyLs3uwH-65">
          <mxGeometry relative="1" as="geometry" />
        </mxCell>
        <mxCell id="8P1LtGxCn2CejyLs3uwH-46" value="Researcher" style="whiteSpace=wrap;html=1;align=center;strokeColor=#6F0000;verticalAlign=middle;fontFamily=Helvetica;fontSize=12;fontColor=#ffffff;fillColor=#a20025;" vertex="1" parent="1">
          <mxGeometry x="1070" y="310" width="100" height="40" as="geometry" />
        </mxCell>
        <mxCell id="8P1LtGxCn2CejyLs3uwH-47" style="edgeStyle=orthogonalEdgeStyle;shape=connector;rounded=0;orthogonalLoop=1;jettySize=auto;html=1;exitX=0.5;exitY=0;exitDx=0;exitDy=0;entryX=0.693;entryY=0.959;entryDx=0;entryDy=0;strokeColor=default;align=center;verticalAlign=middle;fontFamily=Helvetica;fontSize=12;fontColor=#000000;labelBackgroundColor=default;endArrow=none;endFill=0;entryPerimeter=0;" edge="1" parent="1" source="8P1LtGxCn2CejyLs3uwH-48" target="8P1LtGxCn2CejyLs3uwH-43">
          <mxGeometry relative="1" as="geometry">
            <Array as="points">
              <mxPoint x="900" y="585" />
              <mxPoint x="900" y="570" />
              <mxPoint x="899" y="570" />
            </Array>
          </mxGeometry>
        </mxCell>
        <mxCell id="8P1LtGxCn2CejyLs3uwH-48" value="&lt;u&gt;name&lt;/u&gt;" style="ellipse;whiteSpace=wrap;html=1;align=center;strokeColor=#B09500;verticalAlign=middle;fontFamily=Helvetica;fontSize=12;fontColor=#000000;fillColor=#e3c800;" vertex="1" parent="1">
          <mxGeometry x="890" y="585" width="100" height="40" as="geometry" />
        </mxCell>
        <mxCell id="8P1LtGxCn2CejyLs3uwH-49" value="address" style="ellipse;whiteSpace=wrap;html=1;align=center;strokeColor=#B09500;verticalAlign=middle;fontFamily=Helvetica;fontSize=12;fontColor=#000000;fillColor=#e3c800;" vertex="1" parent="1">
          <mxGeometry x="780" y="585" width="100" height="40" as="geometry" />
        </mxCell>
        <mxCell id="8P1LtGxCn2CejyLs3uwH-50" style="edgeStyle=orthogonalEdgeStyle;shape=connector;rounded=0;orthogonalLoop=1;jettySize=auto;html=1;exitX=0.5;exitY=0;exitDx=0;exitDy=0;entryX=0.5;entryY=1;entryDx=0;entryDy=0;strokeColor=default;align=center;verticalAlign=middle;fontFamily=Helvetica;fontSize=12;fontColor=#000000;labelBackgroundColor=default;endArrow=none;endFill=0;" edge="1" parent="1" source="8P1LtGxCn2CejyLs3uwH-51" target="8P1LtGxCn2CejyLs3uwH-60">
          <mxGeometry relative="1" as="geometry" />
        </mxCell>
        <mxCell id="8P1LtGxCn2CejyLs3uwH-51" value="Financial Organization" style="whiteSpace=wrap;html=1;align=center;strokeColor=#6F0000;verticalAlign=middle;fontFamily=Helvetica;fontSize=12;fontColor=#ffffff;fillColor=#a20025;" vertex="1" parent="1">
          <mxGeometry x="900" y="440" width="100" height="40" as="geometry" />
        </mxCell>
        <mxCell id="8P1LtGxCn2CejyLs3uwH-52" style="edgeStyle=orthogonalEdgeStyle;shape=connector;rounded=0;orthogonalLoop=1;jettySize=auto;html=1;exitX=0.5;exitY=0;exitDx=0;exitDy=0;entryX=0.5;entryY=1;entryDx=0;entryDy=0;strokeColor=default;align=center;verticalAlign=middle;fontFamily=Helvetica;fontSize=12;fontColor=#000000;labelBackgroundColor=default;endArrow=none;endFill=0;" edge="1" parent="1" source="8P1LtGxCn2CejyLs3uwH-53" target="8P1LtGxCn2CejyLs3uwH-58">
          <mxGeometry relative="1" as="geometry" />
        </mxCell>
        <mxCell id="8P1LtGxCn2CejyLs3uwH-53" value="Researcher Organization" style="whiteSpace=wrap;html=1;align=center;strokeColor=#6F0000;verticalAlign=middle;fontFamily=Helvetica;fontSize=12;fontColor=#ffffff;fillColor=#a20025;" vertex="1" parent="1">
          <mxGeometry x="770" y="440" width="100" height="40" as="geometry" />
        </mxCell>
        <mxCell id="8P1LtGxCn2CejyLs3uwH-54" style="edgeStyle=orthogonalEdgeStyle;shape=connector;rounded=0;orthogonalLoop=1;jettySize=auto;html=1;exitX=1;exitY=0.5;exitDx=0;exitDy=0;entryX=0.5;entryY=1;entryDx=0;entryDy=0;strokeColor=default;align=center;verticalAlign=middle;fontFamily=Helvetica;fontSize=12;fontColor=#000000;labelBackgroundColor=default;endArrow=none;endFill=0;" edge="1" parent="1" source="8P1LtGxCn2CejyLs3uwH-56" target="8P1LtGxCn2CejyLs3uwH-51">
          <mxGeometry relative="1" as="geometry" />
        </mxCell>
        <mxCell id="8P1LtGxCn2CejyLs3uwH-55" style="edgeStyle=orthogonalEdgeStyle;shape=connector;rounded=0;orthogonalLoop=1;jettySize=auto;html=1;exitX=0;exitY=0.5;exitDx=0;exitDy=0;entryX=0.5;entryY=1;entryDx=0;entryDy=0;strokeColor=default;align=center;verticalAlign=middle;fontFamily=Helvetica;fontSize=12;fontColor=#000000;labelBackgroundColor=default;endArrow=none;endFill=0;" edge="1" parent="1" source="8P1LtGxCn2CejyLs3uwH-56" target="8P1LtGxCn2CejyLs3uwH-53">
          <mxGeometry relative="1" as="geometry" />
        </mxCell>
        <mxCell id="8P1LtGxCn2CejyLs3uwH-56" value="o" style="ellipse;whiteSpace=wrap;html=1;aspect=fixed;strokeColor=#001DBC;align=center;verticalAlign=middle;fontFamily=Helvetica;fontSize=12;fontColor=#ffffff;fillColor=#0050ef;" vertex="1" parent="1">
          <mxGeometry x="865" y="490" width="30" height="30" as="geometry" />
        </mxCell>
        <mxCell id="8P1LtGxCn2CejyLs3uwH-57" style="edgeStyle=orthogonalEdgeStyle;shape=connector;rounded=0;orthogonalLoop=1;jettySize=auto;html=1;exitX=0.5;exitY=0;exitDx=0;exitDy=0;entryX=0.5;entryY=1;entryDx=0;entryDy=0;strokeColor=default;align=center;verticalAlign=middle;fontFamily=Helvetica;fontSize=12;fontColor=#000000;labelBackgroundColor=default;endArrow=none;endFill=0;" edge="1" parent="1" source="8P1LtGxCn2CejyLs3uwH-58" target="8P1LtGxCn2CejyLs3uwH-23">
          <mxGeometry relative="1" as="geometry">
            <Array as="points">
              <mxPoint x="820" y="370" />
              <mxPoint x="850" y="370" />
            </Array>
          </mxGeometry>
        </mxCell>
        <mxCell id="8P1LtGxCn2CejyLs3uwH-58" value="finances" style="shape=rhombus;perimeter=rhombusPerimeter;whiteSpace=wrap;html=1;align=center;strokeColor=#2D7600;verticalAlign=middle;fontFamily=Helvetica;fontSize=12;fontColor=#ffffff;fillColor=#60a917;" vertex="1" parent="1">
          <mxGeometry x="770" y="380" width="100" height="40" as="geometry" />
        </mxCell>
        <mxCell id="8P1LtGxCn2CejyLs3uwH-59" style="edgeStyle=orthogonalEdgeStyle;shape=connector;rounded=0;orthogonalLoop=1;jettySize=auto;html=1;exitX=0.5;exitY=0;exitDx=0;exitDy=0;strokeColor=default;align=center;verticalAlign=middle;fontFamily=Helvetica;fontSize=12;fontColor=#000000;labelBackgroundColor=default;endArrow=none;endFill=0;" edge="1" parent="1" source="8P1LtGxCn2CejyLs3uwH-60">
          <mxGeometry relative="1" as="geometry">
            <mxPoint x="875" y="350" as="targetPoint" />
            <Array as="points">
              <mxPoint x="950" y="370" />
              <mxPoint x="875" y="370" />
            </Array>
          </mxGeometry>
        </mxCell>
        <mxCell id="8P1LtGxCn2CejyLs3uwH-60" value="researches" style="shape=rhombus;perimeter=rhombusPerimeter;whiteSpace=wrap;html=1;align=center;strokeColor=#2D7600;verticalAlign=middle;fontFamily=Helvetica;fontSize=12;fontColor=#ffffff;fillColor=#60a917;" vertex="1" parent="1">
          <mxGeometry x="900" y="380" width="100" height="40" as="geometry" />
        </mxCell>
        <mxCell id="8P1LtGxCn2CejyLs3uwH-61" style="edgeStyle=orthogonalEdgeStyle;shape=connector;rounded=0;orthogonalLoop=1;jettySize=auto;html=1;exitX=1;exitY=0.5;exitDx=0;exitDy=0;entryX=0;entryY=0.5;entryDx=0;entryDy=0;strokeColor=default;align=center;verticalAlign=middle;fontFamily=Helvetica;fontSize=12;fontColor=#000000;labelBackgroundColor=default;endArrow=none;endFill=0;" edge="1" parent="1" source="8P1LtGxCn2CejyLs3uwH-62" target="8P1LtGxCn2CejyLs3uwH-58">
          <mxGeometry relative="1" as="geometry" />
        </mxCell>
        <mxCell id="8P1LtGxCn2CejyLs3uwH-62" value="percentage" style="ellipse;whiteSpace=wrap;html=1;align=center;strokeColor=#B09500;verticalAlign=middle;fontFamily=Helvetica;fontSize=12;fontColor=#000000;fillColor=#e3c800;" vertex="1" parent="1">
          <mxGeometry x="680" y="385" width="70" height="30" as="geometry" />
        </mxCell>
        <mxCell id="8P1LtGxCn2CejyLs3uwH-63" value="N" style="text;html=1;align=center;verticalAlign=middle;resizable=0;points=[];autosize=1;strokeColor=none;fillColor=none;fontFamily=Helvetica;fontSize=12;fontColor=#FFFFFF;" vertex="1" parent="1">
          <mxGeometry x="790" y="360" width="30" height="30" as="geometry" />
        </mxCell>
        <mxCell id="8P1LtGxCn2CejyLs3uwH-64" value="N" style="text;html=1;align=center;verticalAlign=middle;resizable=0;points=[];autosize=1;strokeColor=none;fillColor=none;fontFamily=Helvetica;fontSize=12;fontColor=#FFFFFF;" vertex="1" parent="1">
          <mxGeometry x="945" y="355" width="30" height="30" as="geometry" />
        </mxCell>
        <mxCell id="8P1LtGxCn2CejyLs3uwH-65" value="name" style="ellipse;whiteSpace=wrap;html=1;align=center;strokeColor=#B09500;verticalAlign=middle;fontFamily=Helvetica;fontSize=12;fontColor=#000000;fillColor=#e3c800;" vertex="1" parent="1">
          <mxGeometry x="1130" y="230" width="100" height="40" as="geometry" />
        </mxCell>
        <mxCell id="8P1LtGxCn2CejyLs3uwH-66" value="&lt;u&gt;email&lt;/u&gt;" style="ellipse;whiteSpace=wrap;html=1;align=center;strokeColor=#B09500;verticalAlign=middle;fontFamily=Helvetica;fontSize=12;fontColor=#000000;fillColor=#e3c800;" vertex="1" parent="1">
          <mxGeometry x="1020" y="230" width="100" height="40" as="geometry" />
        </mxCell>
        <mxCell id="8P1LtGxCn2CejyLs3uwH-67" style="edgeStyle=orthogonalEdgeStyle;shape=connector;rounded=0;orthogonalLoop=1;jettySize=auto;html=1;exitX=0.5;exitY=0;exitDx=0;exitDy=0;entryX=0.5;entryY=1;entryDx=0;entryDy=0;strokeColor=default;align=center;verticalAlign=middle;fontFamily=Helvetica;fontSize=12;fontColor=#000000;labelBackgroundColor=default;endArrow=none;endFill=0;" edge="1" parent="1" source="8P1LtGxCn2CejyLs3uwH-68" target="8P1LtGxCn2CejyLs3uwH-46">
          <mxGeometry relative="1" as="geometry" />
        </mxCell>
        <mxCell id="8P1LtGxCn2CejyLs3uwH-68" value="works" style="shape=rhombus;perimeter=rhombusPerimeter;whiteSpace=wrap;html=1;align=center;strokeColor=#2D7600;verticalAlign=middle;fontFamily=Helvetica;fontSize=12;fontColor=#ffffff;fillColor=#60a917;" vertex="1" parent="1">
          <mxGeometry x="1030" y="440" width="100" height="40" as="geometry" />
        </mxCell>
        <mxCell id="8P1LtGxCn2CejyLs3uwH-69" value="N" style="text;html=1;align=center;verticalAlign=middle;resizable=0;points=[];autosize=1;strokeColor=none;fillColor=none;fontFamily=Helvetica;fontSize=12;fontColor=#FFFFFF;" vertex="1" parent="1">
          <mxGeometry x="1080" y="415" width="30" height="30" as="geometry" />
        </mxCell>
        <mxCell id="8P1LtGxCn2CejyLs3uwH-70" value="1" style="text;html=1;align=center;verticalAlign=middle;resizable=0;points=[];autosize=1;strokeColor=none;fillColor=none;fontFamily=Helvetica;fontSize=12;fontColor=#FFFFFF;" vertex="1" parent="1">
          <mxGeometry x="1080" y="470" width="30" height="30" as="geometry" />
        </mxCell>
        <mxCell id="8P1LtGxCn2CejyLs3uwH-71" value="M" style="text;html=1;align=center;verticalAlign=middle;resizable=0;points=[];autosize=1;strokeColor=none;fillColor=none;fontFamily=Helvetica;fontSize=12;fontColor=#FFFFFF;" vertex="1" parent="1">
          <mxGeometry x="1020" y="430" width="30" height="30" as="geometry" />
        </mxCell>
        <mxCell id="8P1LtGxCn2CejyLs3uwH-72" style="edgeStyle=orthogonalEdgeStyle;shape=connector;rounded=0;orthogonalLoop=1;jettySize=auto;html=1;exitX=0;exitY=0.5;exitDx=0;exitDy=0;entryX=1;entryY=0.5;entryDx=0;entryDy=0;strokeColor=default;align=center;verticalAlign=middle;fontFamily=Helvetica;fontSize=12;fontColor=#000000;labelBackgroundColor=default;endArrow=none;endFill=0;" edge="1" parent="1" source="8P1LtGxCn2CejyLs3uwH-73" target="8P1LtGxCn2CejyLs3uwH-68">
          <mxGeometry relative="1" as="geometry" />
        </mxCell>
        <mxCell id="8P1LtGxCn2CejyLs3uwH-73" value="function" style="ellipse;whiteSpace=wrap;html=1;align=center;strokeColor=#B09500;verticalAlign=middle;fontFamily=Helvetica;fontSize=12;fontColor=#000000;fillColor=#e3c800;" vertex="1" parent="1">
          <mxGeometry x="1145" y="445" width="70" height="30" as="geometry" />
        </mxCell>
        <mxCell id="8P1LtGxCn2CejyLs3uwH-74" value="M" style="text;html=1;align=center;verticalAlign=middle;resizable=0;points=[];autosize=1;strokeColor=none;fillColor=none;fontFamily=Helvetica;fontSize=12;fontColor=#FFFFFF;" vertex="1" parent="1">
          <mxGeometry x="945" y="415" width="30" height="30" as="geometry" />
        </mxCell>
        <mxCell id="8P1LtGxCn2CejyLs3uwH-75" value="M" style="text;html=1;align=center;verticalAlign=middle;resizable=0;points=[];autosize=1;strokeColor=none;fillColor=none;fontFamily=Helvetica;fontSize=12;fontColor=#FFFFFF;" vertex="1" parent="1">
          <mxGeometry x="790" y="410" width="30" height="30" as="geometry" />
        </mxCell>
      </root>
    </mxGraphModel>
  </diagram>
</mxfile>
